# Blender v2.77 (sub 0) OBJ File: 'ball.blend'
# www.blender.org
mtllib ball.mtl
o Sphere
v -0.191342 0.461940 0.000000
v -0.353554 0.353553 0.000000
v -0.461940 0.191342 0.000000
v -0.500000 -0.000000 0.000000
v -0.461940 -0.191342 0.000000
v -0.353554 -0.353553 0.000000
v -0.191342 -0.461940 0.000000
v -0.176777 0.461940 -0.073223
v -0.326641 0.353553 -0.135299
v -0.426777 0.191342 -0.176777
v -0.461940 -0.000000 -0.191342
v -0.426777 -0.191342 -0.176777
v -0.326641 -0.353553 -0.135299
v -0.176777 -0.461940 -0.073223
v -0.135299 0.461940 -0.135299
v -0.250000 0.353553 -0.250000
v -0.326641 0.191342 -0.326641
v -0.353554 -0.000000 -0.353553
v -0.326641 -0.191342 -0.326641
v -0.250000 -0.353553 -0.250000
v -0.135299 -0.461940 -0.135299
v -0.073223 0.461940 -0.176777
v -0.135299 0.353553 -0.326641
v -0.176777 0.191342 -0.426777
v -0.191342 -0.000000 -0.461940
v -0.176777 -0.191342 -0.426777
v -0.135299 -0.353553 -0.326641
v -0.073223 -0.461940 -0.176777
v -0.000000 0.461940 -0.191342
v -0.000000 0.353553 -0.353553
v -0.000000 0.191342 -0.461940
v -0.000000 -0.000000 -0.500000
v -0.000000 -0.191342 -0.461940
v -0.000000 -0.353553 -0.353553
v -0.000000 -0.461940 -0.191342
v -0.000000 0.500000 0.000000
v 0.073223 0.461940 -0.176777
v 0.135299 0.353553 -0.326641
v 0.176777 0.191342 -0.426777
v 0.191342 -0.000000 -0.461940
v 0.176777 -0.191342 -0.426777
v 0.135299 -0.353553 -0.326641
v 0.073223 -0.461940 -0.176777
v 0.135299 0.461940 -0.135299
v 0.250000 0.353553 -0.250000
v 0.326641 0.191342 -0.326641
v 0.353553 -0.000000 -0.353553
v 0.326641 -0.191342 -0.326641
v 0.250000 -0.353553 -0.250000
v 0.135299 -0.461940 -0.135299
v 0.176776 0.461940 -0.073223
v 0.326640 0.353553 -0.135299
v 0.426776 0.191342 -0.176777
v 0.461939 -0.000000 -0.191342
v 0.426776 -0.191342 -0.176777
v 0.326640 -0.353553 -0.135299
v 0.176776 -0.461940 -0.073223
v 0.191341 0.461940 0.000000
v 0.353553 0.353553 0.000000
v 0.461939 0.191342 0.000000
v 0.500000 -0.000000 0.000000
v 0.461939 -0.191342 0.000000
v 0.353553 -0.353553 0.000000
v 0.191341 -0.461940 0.000000
v 0.176776 0.461940 0.073223
v 0.326640 0.353553 0.135299
v 0.426776 0.191342 0.176777
v 0.461939 -0.000000 0.191342
v 0.426776 -0.191342 0.176777
v 0.326640 -0.353553 0.135299
v 0.176776 -0.461940 0.073223
v 0.135299 0.461940 0.135299
v 0.250000 0.353553 0.250000
v 0.326640 0.191342 0.326641
v 0.353553 -0.000000 0.353553
v 0.326640 -0.191342 0.326641
v 0.250000 -0.353553 0.250000
v 0.135299 -0.461940 0.135299
v 0.073223 0.461940 0.176777
v 0.135299 0.353553 0.326641
v 0.176776 0.191342 0.426777
v 0.191341 -0.000000 0.461940
v 0.176776 -0.191342 0.426777
v 0.135299 -0.353553 0.326641
v 0.073223 -0.461940 0.176777
v -0.000000 0.461940 0.191342
v -0.000000 0.353553 0.353553
v -0.000000 0.191342 0.461940
v -0.000000 -0.000000 0.500000
v -0.000000 -0.191342 0.461940
v -0.000000 -0.353553 0.353553
v -0.000000 -0.461940 0.191342
v -0.073224 0.461940 0.176777
v -0.135299 0.353553 0.326641
v -0.176777 0.191342 0.426776
v -0.191342 -0.000000 0.461939
v -0.176777 -0.191342 0.426776
v -0.135299 -0.353553 0.326641
v -0.073224 -0.461940 0.176777
v -0.000000 -0.500000 0.000000
v -0.135299 0.461940 0.135299
v -0.250000 0.353553 0.250000
v -0.326641 0.191342 0.326640
v -0.353554 -0.000000 0.353553
v -0.326641 -0.191342 0.326640
v -0.250000 -0.353553 0.250000
v -0.135299 -0.461940 0.135299
v -0.176777 0.461940 0.073223
v -0.326641 0.353553 0.135299
v -0.426777 0.191342 0.176776
v -0.461940 -0.000000 0.191341
v -0.426777 -0.191342 0.176776
v -0.326641 -0.353553 0.135299
v -0.176777 -0.461940 0.073223
vt 0.2814 0.8453
vt 0.4804 0.9947
vt 0.2200 0.8507
vt 0.4992 0.0039
vt 0.2920 0.1605
vt 0.2303 0.1531
vt 0.2630 0.2811
vt 0.2542 0.3924
vt 0.1903 0.3874
vt 0.1992 0.2732
vt 0.2512 0.5001
vt 0.2523 0.6080
vt 0.1888 0.6107
vt 0.1875 0.4989
vt 0.2588 0.7208
vt 0.1958 0.7262
vt 0.1256 0.6145
vt 0.1243 0.4983
vt 0.1546 0.8581
vt 0.1319 0.7333
vt 0.1342 0.2639
vt 0.1637 0.1441
vt 0.1265 0.3821
vt 0.0676 0.2542
vt 0.0896 0.1343
vt 0.0618 0.4986
vt 0.0631 0.3775
vt 0.0668 0.7417
vt 0.0627 0.6195
vt 0.0831 0.8666
vt 0.0000 0.7500
vt 0.0000 0.6250
vt 0.0000 0.8750
vt 0.0000 0.1250
vt 0.0000 0.3750
vt 0.0000 0.2500
vt 0.0000 0.5000
vt 0.5188 0.0039
vt 1.0000 0.1250
vt 0.9387 0.1313
vt 1.0000 0.2500
vt 1.0000 0.3750
vt 0.9391 0.3806
vt 0.9378 0.2593
vt 1.0000 0.5000
vt 1.0000 0.6250
vt 0.9392 0.6207
vt 0.9397 0.5007
vt 1.0000 0.7500
vt 1.0000 0.8750
vt 0.9381 0.8696
vt 0.9380 0.7421
vt 0.4843 0.9947
vt 0.8778 0.8666
vt 0.8764 0.7384
vt 0.8757 0.2632
vt 0.8792 0.1348
vt 0.8787 0.5014
vt 0.8777 0.3838
vt 0.8780 0.6186
vt 0.8135 0.2639
vt 0.8178 0.1338
vt 0.8175 0.5025
vt 0.8163 0.3859
vt 0.8147 0.7381
vt 0.8166 0.6183
vt 0.8163 0.8676
vt 0.7500 0.8750
vt 0.7500 0.1250
vt 0.7551 0.3885
vt 0.7519 0.2652
vt 0.7552 0.6187
vt 0.7561 0.5039
vt 0.7527 0.7397
vt 0.6939 0.3925
vt 0.6908 0.2729
vt 0.6936 0.6180
vt 0.6946 0.5053
vt 0.6773 0.8659
vt 0.6906 0.7377
vt 0.6818 0.1397
vt 0.6301 0.2813
vt 0.6211 0.1516
vt 0.6327 0.5062
vt 0.6324 0.3967
vt 0.6284 0.7312
vt 0.6317 0.6158
vt 0.6142 0.8576
vt 0.5701 0.5063
vt 0.5704 0.3999
vt 0.5667 0.7247
vt 0.5692 0.6127
vt 0.5568 0.8506
vt 0.5652 0.1606
vt 0.5697 0.2879
vt 0.5118 0.1664
vt 0.5078 0.4015
vt 0.5092 0.2918
vt 0.5062 0.6099
vt 0.5070 0.5056
vt 0.5025 0.8454
vt 0.5053 0.7197
vt 0.4429 0.6077
vt 0.4433 0.5045
vt 0.4492 0.8421
vt 0.4441 0.7167
vt 0.4486 0.2929
vt 0.4591 0.1690
vt 0.4449 0.4014
vt 0.3874 0.2912
vt 0.4056 0.1687
vt 0.3793 0.5031
vt 0.3815 0.3997
vt 0.3827 0.7159
vt 0.3795 0.6067
vt 0.3953 0.8410
vt 0.3210 0.7173
vt 0.3159 0.6068
vt 0.3396 0.8420
vt 0.3502 0.1658
vt 0.3179 0.3966
vt 0.3257 0.2872
vt 0.3152 0.5015
vn -0.4031 0.9152 0.0000
vn 0.0000 1.0000 0.0000
vn -0.3724 0.9152 -0.1542
vn 0.0000 -1.0000 0.0000
vn -0.4031 -0.9152 0.0000
vn -0.3724 -0.9152 -0.1542
vn -0.7188 -0.6952 0.0000
vn -0.9273 -0.3743 0.0000
vn -0.8567 -0.3743 -0.3548
vn -0.6641 -0.6952 -0.2751
vn -1.0000 0.0000 0.0000
vn -0.9273 0.3743 0.0000
vn -0.8567 0.3743 -0.3548
vn -0.9239 0.0000 -0.3827
vn -0.7188 0.6952 0.0000
vn -0.6641 0.6952 -0.2751
vn -0.6557 0.3743 -0.6557
vn -0.7071 0.0000 -0.7071
vn -0.2850 0.9152 -0.2850
vn -0.5083 0.6952 -0.5083
vn -0.5083 -0.6952 -0.5083
vn -0.2850 -0.9152 -0.2850
vn -0.6557 -0.3743 -0.6557
vn -0.2751 -0.6952 -0.6641
vn -0.1542 -0.9152 -0.3724
vn -0.3827 0.0000 -0.9239
vn -0.3548 -0.3743 -0.8567
vn -0.2751 0.6952 -0.6641
vn -0.3548 0.3743 -0.8567
vn -0.1542 0.9152 -0.3724
vn 0.0000 0.6952 -0.7188
vn 0.0000 0.3743 -0.9273
vn 0.0000 0.9152 -0.4031
vn 0.0000 -0.9152 -0.4031
vn 0.0000 -0.3743 -0.9273
vn 0.0000 -0.6952 -0.7188
vn 0.0000 0.0000 -1.0000
vn 0.1542 -0.9152 -0.3724
vn 0.3548 -0.3743 -0.8567
vn 0.2751 -0.6952 -0.6641
vn 0.3548 0.3743 -0.8567
vn 0.3827 0.0000 -0.9239
vn 0.1542 0.9152 -0.3724
vn 0.2751 0.6952 -0.6641
vn 0.2850 0.9152 -0.2850
vn 0.5083 0.6952 -0.5083
vn 0.5083 -0.6952 -0.5083
vn 0.2850 -0.9152 -0.2850
vn 0.7071 0.0000 -0.7071
vn 0.6557 -0.3743 -0.6557
vn 0.6557 0.3743 -0.6557
vn 0.6641 -0.6952 -0.2751
vn 0.3724 -0.9152 -0.1542
vn 0.9239 0.0000 -0.3827
vn 0.8567 -0.3743 -0.3548
vn 0.6641 0.6952 -0.2751
vn 0.8567 0.3743 -0.3548
vn 0.3724 0.9152 -0.1542
vn 0.4031 0.9152 0.0000
vn 0.4031 -0.9152 0.0000
vn 0.9273 -0.3743 0.0000
vn 0.7188 -0.6952 0.0000
vn 0.9273 0.3743 0.0000
vn 1.0000 0.0000 0.0000
vn 0.7188 0.6952 0.0000
vn 0.8567 -0.3743 0.3548
vn 0.6641 -0.6952 0.2751
vn 0.8567 0.3743 0.3548
vn 0.9239 0.0000 0.3827
vn 0.3724 0.9152 0.1542
vn 0.6641 0.6952 0.2751
vn 0.3724 -0.9152 0.1542
vn 0.5083 -0.6952 0.5083
vn 0.2850 -0.9152 0.2850
vn 0.7071 0.0000 0.7071
vn 0.6557 -0.3743 0.6557
vn 0.5083 0.6952 0.5083
vn 0.6557 0.3743 0.6557
vn 0.2850 0.9152 0.2850
vn 0.3827 0.0000 0.9239
vn 0.3548 -0.3743 0.8567
vn 0.2751 0.6952 0.6641
vn 0.3548 0.3743 0.8567
vn 0.1542 0.9152 0.3724
vn 0.1542 -0.9152 0.3724
vn 0.2751 -0.6952 0.6641
vn 0.0000 -0.9152 0.4031
vn 0.0000 -0.3743 0.9273
vn 0.0000 -0.6952 0.7188
vn 0.0000 0.3743 0.9273
vn 0.0000 0.0000 1.0000
vn 0.0000 0.9152 0.4031
vn 0.0000 0.6952 0.7188
vn -0.3548 0.3743 0.8567
vn -0.3827 0.0000 0.9239
vn -0.1542 0.9152 0.3724
vn -0.2751 0.6952 0.6641
vn -0.2751 -0.6952 0.6641
vn -0.1542 -0.9152 0.3724
vn -0.3548 -0.3743 0.8567
vn -0.5083 -0.6952 0.5083
vn -0.2850 -0.9152 0.2850
vn -0.7071 0.0000 0.7071
vn -0.6557 -0.3743 0.6557
vn -0.5083 0.6952 0.5083
vn -0.6557 0.3743 0.6557
vn -0.2850 0.9152 0.2850
vn -0.6641 0.6952 0.2751
vn -0.8567 0.3743 0.3548
vn -0.3724 0.9152 0.1542
vn -0.3724 -0.9152 0.1542
vn -0.8567 -0.3743 0.3548
vn -0.6641 -0.6952 0.2751
vn -0.9239 0.0000 0.3827
usemtl Material.001
s 1
f 1/1/1 36/2/2 8/3/3
f 100/4/4 7/5/5 14/6/6
f 6/7/7 5/8/8 12/9/9 13/10/10
f 4/11/11 3/12/12 10/13/13 11/14/14
f 2/15/15 1/1/1 8/3/3 9/16/16
f 7/5/5 6/7/7 13/10/10 14/6/6
f 5/8/8 4/11/11 11/14/14 12/9/9
f 3/12/12 2/15/15 9/16/16 10/13/13
f 11/14/14 10/13/13 17/17/17 18/18/18
f 9/16/16 8/3/3 15/19/19 16/20/20
f 14/6/6 13/10/10 20/21/21 21/22/22
f 12/9/9 11/14/14 18/18/18 19/23/23
f 10/13/13 9/16/16 16/20/20 17/17/17
f 8/3/3 36/2/2 15/19/19
f 100/4/4 14/6/6 21/22/22
f 13/10/10 12/9/9 19/23/23 20/21/21
f 21/22/22 20/21/21 27/24/24 28/25/25
f 19/23/23 18/18/18 25/26/26 26/27/27
f 17/17/17 16/20/20 23/28/28 24/29/29
f 15/19/19 36/2/2 22/30/30
f 100/4/4 21/22/22 28/25/25
f 20/21/21 19/23/23 26/27/27 27/24/24
f 18/18/18 17/17/17 24/29/29 25/26/26
f 16/20/20 15/19/19 22/30/30 23/28/28
f 24/29/29 23/28/28 30/31/31 31/32/32
f 22/30/30 36/2/2 29/33/33
f 100/4/4 28/25/25 35/34/34
f 27/24/24 26/27/27 33/35/35 34/36/36
f 25/26/26 24/29/29 31/32/32 32/37/37
f 23/28/28 22/30/30 29/33/33 30/31/31
f 28/25/25 27/24/24 34/36/36 35/34/34
f 26/27/27 25/26/26 32/37/37 33/35/35
f 100/38/4 35/39/34 43/40/38
f 34/41/36 33/42/35 41/43/39 42/44/40
f 32/45/37 31/46/32 39/47/41 40/48/42
f 30/49/31 29/50/33 37/51/43 38/52/44
f 35/39/34 34/41/36 42/44/40 43/40/38
f 33/42/35 32/45/37 40/48/42 41/43/39
f 31/46/32 30/49/31 38/52/44 39/47/41
f 29/50/33 36/53/2 37/51/43
f 38/52/44 37/51/43 44/54/45 45/55/46
f 43/40/38 42/44/40 49/56/47 50/57/48
f 41/43/39 40/48/42 47/58/49 48/59/50
f 39/47/41 38/52/44 45/55/46 46/60/51
f 37/51/43 36/53/2 44/54/45
f 100/38/4 43/40/38 50/57/48
f 42/44/40 41/43/39 48/59/50 49/56/47
f 40/48/42 39/47/41 46/60/51 47/58/49
f 50/57/48 49/56/47 56/61/52 57/62/53
f 48/59/50 47/58/49 54/63/54 55/64/55
f 46/60/51 45/55/46 52/65/56 53/66/57
f 44/54/45 36/53/2 51/67/58
f 100/38/4 50/57/48 57/62/53
f 49/56/47 48/59/50 55/64/55 56/61/52
f 47/58/49 46/60/51 53/66/57 54/63/54
f 45/55/46 44/54/45 51/67/58 52/65/56
f 51/67/58 36/53/2 58/68/59
f 100/38/4 57/62/53 64/69/60
f 56/61/52 55/64/55 62/70/61 63/71/62
f 54/63/54 53/66/57 60/72/63 61/73/64
f 52/65/56 51/67/58 58/68/59 59/74/65
f 57/62/53 56/61/52 63/71/62 64/69/60
f 55/64/55 54/63/54 61/73/64 62/70/61
f 53/66/57 52/65/56 59/74/65 60/72/63
f 63/71/62 62/70/61 69/75/66 70/76/67
f 61/73/64 60/72/63 67/77/68 68/78/69
f 59/74/65 58/68/59 65/79/70 66/80/71
f 64/69/60 63/71/62 70/76/67 71/81/72
f 62/70/61 61/73/64 68/78/69 69/75/66
f 60/72/63 59/74/65 66/80/71 67/77/68
f 58/68/59 36/2/2 65/79/70
f 100/4/4 64/69/60 71/81/72
f 71/81/72 70/76/67 77/82/73 78/83/74
f 69/75/66 68/78/69 75/84/75 76/85/76
f 67/77/68 66/80/71 73/86/77 74/87/78
f 65/79/70 36/2/2 72/88/79
f 100/4/4 71/81/72 78/83/74
f 70/76/67 69/75/66 76/85/76 77/82/73
f 68/78/69 67/77/68 74/87/78 75/84/75
f 66/80/71 65/79/70 72/88/79 73/86/77
f 76/85/76 75/84/75 82/89/80 83/90/81
f 74/87/78 73/86/77 80/91/82 81/92/83
f 72/88/79 36/2/2 79/93/84
f 100/4/4 78/83/74 85/94/85
f 77/82/73 76/85/76 83/90/81 84/95/86
f 75/84/75 74/87/78 81/92/83 82/89/80
f 73/86/77 72/88/79 79/93/84 80/91/82
f 78/83/74 77/82/73 84/95/86 85/94/85
f 100/4/4 85/94/85 92/96/87
f 84/95/86 83/90/81 90/97/88 91/98/89
f 82/89/80 81/92/83 88/99/90 89/100/91
f 80/91/82 79/93/84 86/101/92 87/102/93
f 85/94/85 84/95/86 91/98/89 92/96/87
f 83/90/81 82/89/80 89/100/91 90/97/88
f 81/92/83 80/91/82 87/102/93 88/99/90
f 79/93/84 36/2/2 86/101/92
f 89/100/91 88/99/90 95/103/94 96/104/95
f 87/102/93 86/101/92 93/105/96 94/106/97
f 92/96/87 91/98/89 98/107/98 99/108/99
f 90/97/88 89/100/91 96/104/95 97/109/100
f 88/99/90 87/102/93 94/106/97 95/103/94
f 86/101/92 36/2/2 93/105/96
f 100/4/4 92/96/87 99/108/99
f 91/98/89 90/97/88 97/109/100 98/107/98
f 99/108/99 98/107/98 106/110/101 107/111/102
f 97/109/100 96/104/95 104/112/103 105/113/104
f 95/103/94 94/106/97 102/114/105 103/115/106
f 93/105/96 36/2/2 101/116/107
f 100/4/4 99/108/99 107/111/102
f 98/107/98 97/109/100 105/113/104 106/110/101
f 96/104/95 95/103/94 103/115/106 104/112/103
f 94/106/97 93/105/96 101/116/107 102/114/105
f 103/115/106 102/114/105 109/117/108 110/118/109
f 101/116/107 36/2/2 108/119/110
f 100/4/4 107/111/102 114/120/111
f 106/110/101 105/113/104 112/121/112 113/122/113
f 104/112/103 103/115/106 110/118/109 111/123/114
f 102/114/105 101/116/107 108/119/110 109/117/108
f 107/111/102 106/110/101 113/122/113 114/120/111
f 105/113/104 104/112/103 111/123/114 112/121/112
f 100/4/4 114/120/111 7/5/5
f 113/122/113 112/121/112 5/8/8 6/7/7
f 111/123/114 110/118/109 3/12/12 4/11/11
f 109/117/108 108/119/110 1/1/1 2/15/15
f 114/120/111 113/122/113 6/7/7 7/5/5
f 112/121/112 111/123/114 4/11/11 5/8/8
f 110/118/109 109/117/108 2/15/15 3/12/12
f 108/119/110 36/2/2 1/1/1
