# Blender v2.77 (sub 0) OBJ File: 'concept.blend'
# www.blender.org
mtllib bg.mtl
o Cylinder
v 5.770436 -0.177428 5.539614
v 5.770436 -0.177429 -5.539616
v -0.008316 -0.177429 -5.539616
v -0.008316 -0.177428 5.539614
v -0.886752 -0.131846 -5.539616
v -0.886752 -0.131845 5.539614
v -1.927570 0.191484 -5.539616
v -1.927570 0.191485 5.539614
v -2.798398 0.656951 -5.539616
v -2.798398 0.656952 5.539614
v -3.561684 1.283364 -5.539616
v -3.561684 1.283365 5.539614
v -4.188096 2.046651 -5.539616
v -4.188096 2.046653 5.539614
v -4.653562 2.917479 -5.539616
v -4.653562 2.917480 5.539614
v -4.940194 3.862382 -5.539616
v -4.940194 3.862383 5.539614
v -5.036977 4.845048 -5.539616
v -5.036977 4.845049 5.539614
v -4.940193 5.827714 -5.539616
v -4.940193 5.827716 5.539614
v -4.653558 6.772616 -5.539616
v -4.653558 6.772617 5.539614
vt 0.3693 0.0001
vt 0.3693 0.9971
vt 0.0001 0.9971
vt 0.0001 0.0001
vt 0.4255 0.0001
vt 0.4255 0.9971
vt 0.4952 0.0001
vt 0.4952 0.9971
vt 0.5583 0.0001
vt 0.5583 0.9971
vt 0.6214 0.0001
vt 0.6214 0.9971
vt 0.6845 0.0001
vt 0.6845 0.9971
vt 0.7475 0.0001
vt 0.7475 0.9971
vt 0.8106 0.0001
vt 0.8106 0.9971
vt 0.8737 0.0001
vt 0.8737 0.9971
vt 0.9368 0.0001
vt 0.9368 0.9971
vt 0.9999 0.0001
vt 0.9999 0.9971
vn 0.0259 0.9996 0.0000
vn 0.0000 1.0000 0.0000
vn 0.1756 0.9844 0.0000
vn 0.3858 0.9226 0.0000
vn 0.5556 0.8314 0.0000
vn 0.7071 0.7071 0.0000
vn 0.8314 0.5556 0.0000
vn 0.9239 0.3827 0.0000
vn 0.9808 0.1951 0.0000
vn 1.0000 0.0000 0.0000
vn 0.9808 -0.1951 0.0000
vn 0.9569 -0.2903 0.0000
usemtl Material.001
s 1
f 3/1/1 4/2/1 1/3/2 2/4/2
f 3/1/1 5/5/3 6/6/3 4/2/1
f 5/5/3 7/7/4 8/8/4 6/6/3
f 7/7/4 9/9/5 10/10/5 8/8/4
f 9/9/5 11/11/6 12/12/6 10/10/5
f 11/11/6 13/13/7 14/14/7 12/12/6
f 13/13/7 15/15/8 16/16/8 14/14/7
f 15/15/8 17/17/9 18/18/9 16/16/8
f 17/17/9 19/19/10 20/20/10 18/18/9
f 19/19/10 21/21/11 22/22/11 20/20/10
f 21/21/11 23/23/12 24/24/12 22/22/11
